<svg xmlns="http://www.w3.org/2000/svg" viewBox="0 0 96 96" fill="none">
  <defs>
    <linearGradient id="az-a" x1="52" y1="10" x2="30" y2="86" gradientUnits="userSpaceOnUse">
      <stop stop-color="#114A8B"/>
      <stop offset="1" stop-color="#0669BC"/>
    </linearGradient>
    <linearGradient id="az-c" x1="56" y1="10" x2="80" y2="84" gradientUnits="userSpaceOnUse">
      <stop stop-color="#3CCBF4"/>
      <stop offset="1" stop-color="#2892DF"/>
    </linearGradient>
  </defs>
  <path fill="url(#az-a)" d="M33.3 8h20.4L32.5 70.4a3.3 3.3 0 0 1-3.1 2.2H13.6a3.3 3.3 0 0 1-3.1-4.4L30.2 10.2A3.3 3.3 0 0 1 33.3 8z"/>
  <path fill="#0078D4" d="M62.9 50.3H30.5a1.5 1.5 0 0 0-1 2.6l20.8 19.4a3.3 3.3 0 0 0 2.3.9h18.6z"/>
  <path fill="url(#az-c)" d="M53.9 10.2A3.3 3.3 0 0 0 50.8 8H33.5a3.3 3.3 0 0 1 3.1 2.2l19.7 58a3.3 3.3 0 0 1-3.1 4.4h17.3a3.3 3.3 0 0 0 3.1-4.4z"/>
</svg>
